<?xml version="1.0" encoding="UTF-8"?>
<svg xmlns="http://www.w3.org/2000/svg" xmlns:xlink="http://www.w3.org/1999/xlink" width="85px" height="85px" viewBox="0 0 85 85" version="1.1">
<g id="surface1">
<path style=" stroke:none;fill-rule:nonzero;fill:rgb(1.176471%,0%,0%);fill-opacity:1;" d="M 61.273438 47.230469 C 59.332031 47.230469 57.9375 45.785156 57.9375 43.792969 C 57.9375 41.800781 59.332031 40.378906 61.222656 40.378906 C 63.109375 40.378906 64.519531 41.8125 64.519531 43.792969 C 64.519531 43.894531 64.503906 44.050781 64.492188 44.183594 L 59.4375 44.183594 C 59.582031 45.25 60.335938 45.992188 61.328125 45.992188 C 62.03125 45.992188 62.679688 45.613281 63.007812 45.054688 L 64.179688 45.808594 C 63.59375 46.65625 62.460938 47.230469 61.273438 47.230469 Z M 59.503906 43.074219 L 62.953125 43.074219 C 62.71875 42.203125 62.054688 41.617188 61.222656 41.617188 C 60.386719 41.617188 59.738281 42.203125 59.503906 43.074219 Z M 55.058594 47.207031 L 55.058594 40.550781 L 56.566406 40.550781 L 56.566406 47.566406 C 56.566406 48.484375 56.386719 49.160156 56.019531 49.558594 C 55.59375 50.039062 55.003906 50.269531 54.246094 50.269531 L 53.835938 48.914062 C 54.289062 48.914062 54.605469 48.789062 54.78125 48.542969 C 54.960938 48.28125 55.058594 47.839844 55.058594 47.210938 Z M 56.757812 38.0625 C 56.757812 38.585938 56.332031 39.011719 55.808594 39.011719 C 55.285156 39.011719 54.859375 38.585938 54.859375 38.0625 C 54.859375 37.539062 55.285156 37.113281 55.808594 37.113281 C 56.332031 37.113281 56.757812 37.539062 56.757812 38.0625 Z M 66.332031 38.0625 L 67.839844 38.0625 L 67.839844 40.546875 L 69.15625 40.546875 L 69.15625 41.785156 L 67.839844 41.785156 L 67.839844 47.0625 L 66.332031 47.0625 L 66.332031 41.785156 L 65.269531 41.785156 L 65.269531 40.546875 L 66.332031 40.546875 Z M 34.113281 47.0625 L 35.332031 44.585938 L 39.976562 44.585938 L 41.183594 47.0625 L 42.757812 47.0625 L 37.65625 36.617188 L 32.550781 47.0625 Z M 35.964844 43.292969 L 37.65625 39.851562 L 39.34375 43.292969 Z M 53.609375 42.773438 C 53.136719 42.167969 52.566406 41.679688 51.5 41.679688 C 50.433594 41.679688 49.585938 42.566406 49.585938 43.804688 C 49.585938 45.042969 50.390625 45.925781 51.5 45.925781 C 52.605469 45.925781 53.136719 45.425781 53.609375 44.824219 L 53.609375 46.539062 C 53.039062 46.972656 52.316406 47.230469 51.5 47.230469 C 49.53125 47.230469 48.113281 45.78125 48.113281 43.804688 C 48.113281 41.824219 49.53125 40.378906 51.5 40.378906 C 52.316406 40.378906 53.042969 40.625 53.609375 41.058594 Z M 45.144531 47.0625 L 43.636719 47.0625 L 43.636719 40.550781 L 45.144531 40.550781 L 45.144531 41.171875 C 45.433594 40.847656 45.675781 40.660156 45.875 40.566406 C 46.121094 40.445312 46.390625 40.382812 46.664062 40.386719 C 46.964844 40.386719 47.472656 40.507812 47.898438 40.769531 L 47.214844 42.140625 C 46.925781 41.933594 46.652344 41.839844 46.378906 41.839844 C 45.554688 41.839844 45.144531 42.453125 45.144531 43.6875 Z M 24.789062 42.480469 C 25.757812 42.726562 26.554688 42.925781 28.21875 43.296875 C 27.070312 43.546875 25.925781 43.816406 24.789062 44.109375 C 24.464844 44.191406 24.210938 44.445312 24.128906 44.773438 C 23.878906 45.738281 23.683594 46.539062 23.3125 48.199219 C 23.0625 47.054688 22.792969 45.910156 22.5 44.773438 C 22.417969 44.445312 22.160156 44.191406 21.835938 44.109375 C 20.871094 43.863281 20.070312 43.664062 18.40625 43.296875 C 20.070312 42.925781 20.871094 42.726562 21.835938 42.480469 C 22.160156 42.398438 22.414062 42.144531 22.5 41.816406 C 22.746094 40.851562 22.945312 40.050781 23.3125 38.390625 C 23.679688 40.050781 23.878906 40.851562 24.125 41.816406 C 24.210938 42.144531 24.464844 42.398438 24.789062 42.480469 Z M 24.789062 42.480469 "/>
<path style=" stroke:none;fill-rule:nonzero;fill:rgb(1.176471%,0%,0%);fill-opacity:1;" d="M 15.84375 43.023438 L 16.117188 43.296875 L 15.84375 43.566406 C 13.324219 43.382812 10.949219 43.355469 7.121094 43.316406 L 5.328125 43.296875 L 7.097656 43.277344 C 10.9375 43.234375 13.320312 43.207031 15.84375 43.023438 Z M 67.332031 30.589844 C 73.722656 30.589844 79.664062 35.992188 79.664062 42.503906 C 79.664062 49.015625 73.722656 54.417969 67.335938 54.417969 L 67.234375 54.417969 C 73.765625 54.363281 79.046875 49.050781 79.046875 42.503906 C 79.046875 35.957031 73.765625 30.644531 67.234375 30.589844 Z M 67.332031 30.589844 "/>
</g>
</svg>
