<?xml version="1.0" encoding="UTF-8"?>
<svg xmlns="http://www.w3.org/2000/svg" xmlns:xlink="http://www.w3.org/1999/xlink" width="85px" height="50px" viewBox="0 0 85 50" version="1.1">
<g id="surface1">
<path style=" stroke:none;fill-rule:nonzero;fill:rgb(1.176471%,0%,0%);fill-opacity:1;" d="M 61.273438 27.78125 C 59.332031 27.78125 57.9375 26.929688 57.9375 25.757812 C 57.9375 24.585938 59.332031 23.753906 61.222656 23.753906 C 63.109375 23.753906 64.519531 24.597656 64.519531 25.757812 C 64.519531 25.816406 64.503906 25.914062 64.492188 25.988281 L 59.4375 25.988281 C 59.582031 26.625 60.335938 27.050781 61.328125 27.050781 C 62.03125 27.050781 62.679688 26.832031 63.007812 26.5 L 64.179688 26.941406 C 63.59375 27.441406 62.460938 27.78125 61.273438 27.78125 Z M 59.503906 25.339844 L 62.953125 25.339844 C 62.71875 24.828125 62.054688 24.476562 61.222656 24.476562 C 60.386719 24.476562 59.738281 24.828125 59.503906 25.339844 Z M 55.058594 27.769531 L 55.058594 23.851562 L 56.566406 23.851562 L 56.566406 27.976562 C 56.566406 28.515625 56.386719 28.917969 56.019531 29.148438 C 55.59375 29.429688 55.003906 29.566406 54.246094 29.566406 L 53.835938 28.773438 C 54.289062 28.773438 54.605469 28.699219 54.78125 28.550781 C 54.960938 28.40625 55.058594 28.136719 55.058594 27.769531 Z M 56.757812 22.386719 C 56.757812 22.691406 56.332031 22.949219 55.808594 22.949219 C 55.285156 22.949219 54.859375 22.691406 54.859375 22.386719 C 54.859375 22.082031 55.285156 21.828125 55.808594 21.828125 C 56.332031 21.828125 56.757812 22.082031 56.757812 22.386719 Z M 66.332031 22.386719 L 67.839844 22.386719 L 67.839844 23.851562 L 69.15625 23.851562 L 69.15625 24.585938 L 67.839844 24.585938 L 67.839844 27.6875 L 66.332031 27.6875 L 66.332031 24.585938 L 65.269531 24.585938 L 65.269531 23.851562 L 66.332031 23.851562 Z M 34.113281 27.6875 L 35.332031 26.234375 L 39.976562 26.234375 L 41.183594 27.6875 L 42.757812 27.6875 L 37.65625 21.546875 L 32.550781 27.6875 Z M 35.964844 25.464844 L 37.65625 23.4375 L 39.34375 25.464844 Z M 53.609375 25.160156 C 53.136719 24.804688 52.566406 24.511719 51.5 24.511719 C 50.433594 24.511719 49.585938 25.035156 49.585938 25.769531 C 49.585938 26.488281 50.390625 27.015625 51.5 27.015625 C 52.605469 27.015625 53.136719 26.722656 53.609375 26.367188 L 53.609375 27.378906 C 53.039062 27.636719 52.316406 27.78125 51.5 27.78125 C 49.53125 27.78125 48.113281 26.929688 48.113281 25.769531 C 48.113281 24.597656 49.53125 23.753906 51.5 23.753906 C 52.316406 23.753906 53.042969 23.902344 53.609375 24.144531 Z M 45.144531 27.6875 L 43.636719 27.6875 L 43.636719 23.851562 L 45.144531 23.851562 L 45.144531 24.21875 C 45.433594 24.023438 45.675781 23.914062 45.875 23.863281 C 46.121094 23.792969 46.390625 23.753906 46.664062 23.753906 C 46.964844 23.753906 47.472656 23.828125 47.898438 23.988281 L 47.214844 24.792969 C 46.925781 24.671875 46.652344 24.609375 46.378906 24.609375 C 45.554688 24.609375 45.144531 24.976562 45.144531 25.695312 Z M 24.789062 24.988281 C 25.757812 25.132812 26.554688 25.257812 28.21875 25.464844 C 27.070312 25.609375 25.925781 25.769531 24.789062 25.953125 C 24.464844 26 24.210938 26.148438 24.128906 26.332031 C 23.878906 26.902344 23.683594 27.378906 23.3125 28.355469 C 23.0625 27.671875 22.792969 27 22.5 26.332031 C 22.417969 26.148438 22.160156 26 21.835938 25.953125 C 20.871094 25.804688 20.070312 25.683594 18.40625 25.464844 C 20.070312 25.257812 20.871094 25.132812 21.835938 24.988281 C 22.160156 24.9375 22.414062 24.792969 22.5 24.597656 C 22.746094 24.035156 22.945312 23.558594 23.3125 22.582031 C 23.679688 23.558594 23.878906 24.035156 24.125 24.597656 C 24.210938 24.792969 24.464844 24.9375 24.789062 24.988281 Z M 24.789062 24.988281 "/>
<path style=" stroke:none;fill-rule:nonzero;fill:rgb(1.176471%,0%,0%);fill-opacity:1;" d="M 15.84375 25.304688 L 16.117188 25.464844 L 15.84375 25.621094 C 13.324219 25.523438 10.949219 25.5 7.121094 25.476562 L 5.328125 25.464844 L 7.097656 25.453125 C 10.9375 25.425781 13.320312 25.414062 15.84375 25.304688 Z M 67.332031 17.992188 C 73.722656 17.992188 79.664062 21.167969 79.664062 25 C 79.664062 28.832031 73.722656 32.007812 67.335938 32.007812 L 67.234375 32.007812 C 73.765625 31.980469 79.046875 28.855469 79.046875 25 C 79.046875 21.15625 73.765625 18.03125 67.234375 17.992188 Z M 67.332031 17.992188 "/>
</g>
</svg>
